<svg width="80" height="80" viewBox="0 0 80 80" fill="none" xmlns="http://www.w3.org/2000/svg">
    <rect width="80" height="80" rx="10" fill="#4269E1"/>
    <path d="M43.013 28.634h-1v.05l.005.05.995-.1zm0 0h1v-.05l-.005-.05-.995.1zm.04.39-.996.1.995-.1zm.797 2.68-.382.924.382-.924zm2.459-1.33-.633-.774.633.774zm.304-.249.633.774-.633-.774zm1.383-.798-.05.999.05-.999zm1.298.932-.707.707.707-.707zm1.447 1.447-.707.707.707-.707zm.133 2.68-.773-.633.773.634zm-.248.305.774.633-.774-.633zm1.349 3.256-.1.995.1-.995zm.39.04.1-.996-.1.995zm1.543.413.742-.67-.742.67zm0 5.199.742.671-.742-.671zm-1.542.414v1h.05l.05-.005-.1-.995zm0 0v-1h-.05l-.05.005.1.995zm-.39.04-.1-.996.1.995zm-2.68.797-.924-.383.924.383zm1.33 2.459-.774.633.032.038.035.036.707-.707zm0 0 .774-.634-.031-.038-.035-.035-.708.707zm.249.303.774-.633-.774.633zm-4.262 4.262.633-.774-.633.774zm-.304-.249-.633.774.633-.774zm-3.256 1.349-.995-.1.995.1zm-.04.391-.995-.1-.005.05v.05h1zm0 0 .995.1.005-.05v-.05h-1zm-.414 1.543.671.741-.67-.741zm-5.198 0-.671.741.67-.741zm-.415-1.543-.994.1.995-.1zm-.039-.39.995-.1-.995.1zm-3.256-1.35.633.775-.633-.774zm-.304.25-.633-.775.633.774zm-1.384.797-.05.999.05-.999zm-1.297-.931-.707.707.707-.707zm-1.447-1.448.707-.707-.707.707zm-.134-2.68.774.633-.774-.633zm.249-.304.774.633-.774-.633zm1.33-2.459-.924.383.924-.383zm-2.679-.798-.1.995.1-.995zm-.39-.039.099-.995-.05-.005h-.05v1zm0 0-.1.995.05.005h.05v-1zm-1.543-.414.741-.671-.741.671zm0-5.199-.742-.67.742.67zm1.542-.414-.1-.995.1.995zm.392-.039.099.995-.1-.995zm1.348-3.256.774-.634-.031-.038-.036-.035-.707.707zm0 0-.773.633.031.038.035.036.707-.707zm-.249-.305.774-.633-.774.633zm.134-2.68.707.706-.707-.707zm1.447-1.448.707.707-.707-.707zm2.68-.134-.632.774.633-.774zm.305.25-.633.773.023.02.024.017.586-.81zm0 0 .633-.775-.023-.019-.025-.018-.585.811zm2.459 1.33-.383-.924.383.923zm.797-2.68.995.1-.995-.1zm.04-.39-.995-.1.995.1zm.414-1.542-.671-.742.67.742zm5.198 0-.67.741.67-.741zm1.414 1.542h-2 2zm.035.291-.04-.39-1.99.198.04.391 1.99-.199zm.185 1.855c.174.072.13.214.042-.133-.087-.348-.142-.871-.227-1.722l-1.99.2c.078.782.145 1.484.278 2.01.132.527.405 1.192 1.132 1.493l.765-1.848zm1.443-1.18c-.662.541-1.07.872-1.379 1.056-.307.184-.238.052-.064.124l-.765 1.848c.726.3 1.389.024 1.856-.255.465-.279 1.01-.727 1.618-1.225L45.676 29.6zm.304-.249-.304.249 1.266 1.548.304-.249-1.266-1.548zm2.066-1.023c-.475-.023-.859.147-1.165.338-.282.176-.59.43-.901.685l1.266 1.548c.354-.29.546-.444.693-.536.123-.076.097-.033.008-.037l.1-1.998zm1.955 1.224c-.285-.286-.566-.569-.829-.772-.285-.22-.651-.428-1.126-.452l-.1 1.998c-.09-.005-.11-.05.004.038.138.106.313.279.636.602l1.415-1.414zm1.447 1.447L50 29.552l-1.414 1.414 1.447 1.447L51.448 31zm1.223 1.954c-.023-.474-.231-.84-.452-1.126-.203-.263-.486-.543-.771-.828l-1.414 1.414c.323.323.496.499.602.636.088.115.042.094.038.004l1.997-.1zm-1.023 2.067c.256-.312.51-.62.685-.901.191-.306.362-.69.338-1.166l-1.997.1c-.005-.09.04-.115-.038.008-.091.147-.246.339-.535.692l1.547 1.267zm-.248.304.248-.304-1.547-1.267-.25.304 1.549 1.267zm-1.18 1.443c.071.173-.06.242.123-.065.184-.308.515-.717 1.057-1.378l-1.548-1.267c-.498.61-.947 1.154-1.225 1.619-.28.467-.556 1.13-.255 1.856l1.847-.765zm1.854.185c-.85-.085-1.373-.14-1.722-.227-.346-.088-.205-.132-.133.042l-1.847.765c.3.727.965 1 1.492 1.132.526.132 1.228.2 2.011.278l.2-1.99zm.391.04-.39-.04-.2 1.99.391.04.2-1.99zm2.184.737c-.319-.352-.71-.503-1.062-.585-.324-.075-.72-.113-1.122-.153l-.199 1.99c.455.046.7.072.869.111.141.033.092.046.032-.02l1.483-1.343zm.518 2.247c0-.403.002-.801-.04-1.13-.047-.359-.159-.764-.477-1.117l-1.483 1.342c-.06-.066-.043-.114-.025.03.023.172.025.419.025.875h2zm0 2.047v-2.047h-2v2.047h2zm-.517 2.247c.319-.352.43-.758.476-1.116.043-.33.04-.728.04-1.131h-2c0 .457-.001.704-.023.876-.02.143-.037.096.024.029l1.483 1.342zm-2.185.738c.401-.04.798-.078 1.122-.153.351-.081.743-.232 1.063-.585l-1.483-1.342c.06-.067.11-.054-.032-.021-.169.04-.414.066-.869.111l.2 1.99zm-.1.005v-2 2zm-.29.034.39-.039-.199-1.99-.39.04.199 1.99zm-1.855.186c-.072.174-.214.129.133.042.348-.088.871-.143 1.722-.228l-.2-1.99c-.782.078-1.484.146-2.01.278-.527.133-1.192.406-1.493 1.132l1.848.766zm1.18 1.442c-.541-.661-.872-1.07-1.056-1.378-.184-.307-.052-.238-.124-.064l-1.848-.766c-.3.727-.024 1.39.255 1.856.279.466.727 1.01 1.225 1.619l1.548-1.267zm-.066-.073-1.415 1.414 1.415-1.414zm.315.377-.249-.304-1.548 1.267.249.303 1.548-1.266zm1.022 2.066c.024-.474-.147-.859-.337-1.165-.176-.282-.43-.589-.685-.901L50.1 48.245c.289.354.444.546.535.693.077.123.033.098.038.008l1.997.1zM51.448 51c.285-.285.568-.566.771-.829.22-.285.429-.65.452-1.126l-1.997-.1c.004-.09.05-.11-.038.005-.106.137-.28.313-.602.636L51.448 51zm-1.447 1.447L51.448 51l-1.414-1.414-1.447 1.447L50 52.447zm-1.955 1.223c.475-.023.84-.231 1.126-.452.263-.203.544-.486.829-.77l-1.414-1.415c-.324.323-.5.496-.637.602-.114.089-.093.042-.003.038l.1 1.997zm-2.066-1.022c.312.255.619.509.9.685.307.19.691.361 1.166.337l-.1-1.997c.09-.005.116.04-.007-.037-.147-.092-.34-.247-.693-.536l-1.266 1.548zm-.304-.249.304.249 1.266-1.548-.304-.249-1.266 1.548zm-1.443-1.18c-.174.072-.242-.06.064.123.308.185.717.516 1.379 1.057l1.266-1.548c-.609-.498-1.153-.947-1.618-1.225-.467-.28-1.13-.556-1.856-.255l.765 1.847zm-.185 1.855c.085-.851.14-1.374.227-1.722.087-.347.132-.205-.042-.133l-.765-1.848c-.727.3-1 .965-1.132 1.493-.133.526-.2 1.228-.279 2.01l1.99.2zm-.04.39.04-.39-1.99-.2-.04.392 1.99.199zm.005-.099h-2 2zm-.743 2.284c.353-.319.504-.711.585-1.063.076-.323.113-.72.153-1.121l-1.99-.2c-.045.455-.072.7-.11.87-.034.14-.047.092.02.031l1.342 1.483zm-2.247.517c.404 0 .802.002 1.131-.04.358-.046.764-.158 1.116-.477l-1.342-1.483c.067-.06.115-.042-.03-.024-.171.022-.418.024-.875.024v2zm-2.046 0h2.046v-2h-2.046v2zm-2.247-.517c.352.32.758.43 1.115.477.33.042.728.04 1.132.04v-2c-.457 0-.704-.002-.876-.024-.144-.018-.096-.036-.03.024L36.73 55.65zm-.738-2.184c.04.401.077.798.152 1.121.082.352.233.744.586 1.063l1.342-1.483c.066.06.053.11.02-.031-.038-.17-.065-.415-.11-.87l-1.99.2zm-.04-.391.04.39 1.99-.198-.04-.391-1.99.199zm-.185-1.855c-.174-.072-.13-.214-.042.133.087.348.142.871.227 1.722l1.99-.199c-.078-.783-.145-1.485-.278-2.01-.132-.528-.405-1.193-1.132-1.494l-.765 1.848zm-1.443 1.18c.662-.54 1.07-.872 1.379-1.056.306-.184.238-.052.064-.124l.765-1.848c-.726-.3-1.39-.024-1.856.255-.465.279-1.01.727-1.618 1.226l1.266 1.548zm-.304.25.304-.25-1.266-1.547-.304.248 1.266 1.548zm-2.067 1.022c.475.024.86-.147 1.166-.338.282-.175.589-.43.901-.685L32.754 51.1c-.354.29-.546.444-.693.536-.123.077-.098.033-.008.037l-.1 1.998zM30 52.448c.285.285.566.568.829.771.285.22.65.428 1.125.452l.1-1.998c.09.005.111.051-.003-.037-.138-.106-.314-.28-.637-.603L30 52.448zM28.552 51l1.447 1.447 1.414-1.415-1.447-1.447-1.414 1.415zm-1.223-1.955c.023.475.231.84.451 1.126.203.263.487.543.772.829l1.414-1.415c-.323-.323-.496-.499-.602-.636-.089-.115-.042-.094-.038-.004l-1.997.1zm1.022-2.066c-.255.312-.509.619-.685.9-.19.307-.361.691-.337 1.166l1.997-.1c.005.09-.04.116.037-.007.092-.147.247-.34.536-.693l-1.548-1.267zm.249-.304-.249.303 1.548 1.267.249-.304-1.548-1.267zm1.18-1.443c-.072-.174.06-.243-.123.064-.185.308-.516.717-1.057 1.379l1.548 1.266c.498-.609.947-1.153 1.225-1.619.28-.466.556-1.129.255-1.856l-1.848.766zm-1.855-.186c.851.085 1.374.14 1.722.228.347.087.205.132.133-.042l1.848-.766c-.3-.726-.965-1-1.493-1.132-.526-.132-1.228-.2-2.01-.278l-.2 1.99zm-.39-.039.39.04.2-1.99-.391-.04-.2 1.99zm.1.005v-2 2zm-2.285-.743c.32.352.712.504 1.063.585.324.075.72.113 1.122.153l.199-1.99c-.455-.045-.7-.072-.87-.111-.14-.033-.091-.046-.03.021L25.35 44.27zm-.517-2.247c0 .403-.002.802.04 1.131.047.358.158.764.477 1.116l1.483-1.342c.06.067.043.114.024-.03-.022-.171-.024-.418-.024-.875h-2zm0-2.047v2.047h2v-2.047h-2zm.517-2.247c-.319.353-.43.758-.476 1.116-.043.33-.04.728-.04 1.131h2c0-.456.001-.703.023-.875.019-.144.037-.096-.024-.03L25.35 37.73zm2.185-.738c-.402.04-.798.078-1.122.153-.351.082-.744.233-1.063.585l1.483 1.342c-.06.067-.11.054.032.021.169-.039.414-.065.869-.11l-.2-1.99zm.391-.039-.391.04.199 1.99.391-.04-.199-1.99zm1.855-.185c.072-.174.214-.13-.133-.043-.348.088-.871.143-1.722.228l.199 1.99c.783-.078 1.485-.146 2.01-.278.528-.133 1.193-.405 1.494-1.132l-1.848-.765zm-1.18-1.443c.54.661.872 1.07 1.056 1.378.183.307.052.239.124.065l1.848.765c.3-.727.024-1.39-.255-1.856-.279-.466-.727-1.01-1.226-1.619l-1.547 1.267zm.066.074 1.414-1.415-1.414 1.415zm-.316-.379.25.305 1.547-1.267-.249-.304-1.548 1.266zm-1.022-2.066c-.024.474.146.859.337 1.165.176.282.43.59.685.901l1.548-1.266c-.29-.354-.444-.546-.536-.693-.076-.123-.032-.098-.037-.008l-1.997-.1zm1.223-1.955c-.285.285-.569.566-.771.829-.22.285-.429.651-.452 1.126l1.997.1c-.004.09-.05.11.038-.004.106-.138.279-.313.602-.637l-1.414-1.414zm1.447-1.447-1.447 1.447 1.414 1.414 1.447-1.447L30 29.551zm1.955-1.223c-.475.023-.84.231-1.126.452-.263.203-.544.486-.829.771l1.414 1.414c.323-.323.5-.496.637-.602.114-.088.093-.042.003-.038l-.1-1.997zm2.066 1.022c-.312-.255-.62-.509-.901-.685-.306-.19-.69-.36-1.165-.337l.1 1.997c-.09.005-.116-.04.007.038.147.091.34.246.693.535l1.266-1.548zm.304.25-.304-.25-1.266 1.548.304.25 1.266-1.549zm-.048-.038-1.17 1.622 1.17-1.622zm1.49 1.218c.175-.072.244.06-.063-.124-.308-.184-.717-.515-1.379-1.057l-1.266 1.548c.609.498 1.153.947 1.618 1.225.467.28 1.13.556 1.856.255l-.765-1.847zm.186-1.855c-.085.85-.14 1.373-.227 1.722-.087.346-.132.205.042.133l.765 1.847c.727-.3 1-.965 1.132-1.493.133-.525.2-1.227.279-2.01l-1.99-.2zm.04-.39-.04.39 1.99.199.04-.39-1.99-.2zm.738-2.185c-.353.32-.504.711-.586 1.063-.075.323-.112.72-.152 1.122l1.99.198c.045-.454.072-.7.11-.868.033-.141.046-.092-.02-.032L36.73 26.35zm2.247-.517c-.404 0-.802-.002-1.132.04-.358.047-.763.158-1.115.477l1.342 1.483c-.067.06-.115.043.029.024.172-.022.419-.024.876-.024v-2zm2.046 0h-2.046v2h2.046v-2zm2.247.517c-.352-.319-.758-.43-1.116-.477-.329-.042-.727-.04-1.13-.04v2c.456 0 .703.002.875.024.144.019.096.036.03-.024l1.341-1.483zm.738 2.184c-.04-.4-.078-.797-.153-1.121-.081-.352-.232-.744-.585-1.063l-1.342 1.483c-.066-.06-.053-.11-.02.032.038.169.065.414.11.869l1.99-.2zM44.667 41A4.667 4.667 0 0 1 40 45.666v2A6.667 6.667 0 0 0 46.667 41h-2zM40 36.333A4.667 4.667 0 0 1 44.667 41h2A6.667 6.667 0 0 0 40 34.333v2zM35.333 41A4.667 4.667 0 0 1 40 36.333v-2A6.667 6.667 0 0 0 33.333 41h2zM40 45.666A4.667 4.667 0 0 1 35.333 41h-2A6.667 6.667 0 0 0 40 47.666v-2z" fill="#fff"/>
</svg>
