<svg width="277" height="277" viewBox="0 0 277 277" fill="none" xmlns="http://www.w3.org/2000/svg">
    <g filter="url(#8s1vvnfb8a)">
        <rect x="36" y="24" width="181" height="181" rx="90.5" fill="#4269E1" shape-rendering="crispEdges"/>
        <g clip-path="url(#lwy4idtnkb)">
            <path d="M119.123 74.256a2.291 2.291 0 0 0-2.289 2.29 2.29 2.29 0 0 0 2.289 2.289h2.29v4.899a32.056 32.056 0 0 0 4.578 63.782 32.05 32.05 0 0 0 29.154-18.737 32.041 32.041 0 0 0 2.57-17.876 32.043 32.043 0 0 0-7.502-16.427l.059-.055 1.621-1.621 1.617 1.62a2.28 2.28 0 0 0 1.626.7 2.288 2.288 0 0 0 1.611-3.937l-6.475-6.478a2.28 2.28 0 0 0-1.626-.7 2.29 2.29 0 0 0-1.611 3.937l1.621 1.62-1.621 1.621-.055.055a31.924 31.924 0 0 0-16.41-7.5v-4.903h2.289a2.288 2.288 0 0 0 1.619-3.909 2.288 2.288 0 0 0-1.619-.67h-13.736zm9.158 25.64v15.569c0 .607-.241 1.189-.671 1.618a2.285 2.285 0 0 1-1.619.671h-16.025a2.287 2.287 0 0 1-2.29-2.289 2.29 2.29 0 0 1 2.29-2.29h13.736V99.897a2.287 2.287 0 0 1 2.289-2.29 2.288 2.288 0 0 1 2.29 2.29z" fill="#fff"/>
            <path fill="#fff" d="M105.381 91.434h26.827v30.3h-26.827z"/>
            <path d="M112.336 114.745c0-2.808.608-5.306 1.823-7.493 1.215-2.214 2.903-3.928 5.063-5.143 2.187-1.242 4.657-1.863 7.411-1.863 3.375 0 6.264.891 8.667 2.673 2.403 1.782 4.01 4.212 4.82 7.29h-7.614c-.567-1.188-1.377-2.093-2.43-2.714-1.026-.621-2.201-.931-3.524-.931-2.133 0-3.861.742-5.184 2.227-1.323 1.485-1.984 3.47-1.984 5.954 0 2.484.661 4.468 1.984 5.953 1.323 1.485 3.051 2.228 5.184 2.228 1.323 0 2.498-.311 3.524-.932 1.053-.621 1.863-1.525 2.43-2.713h7.614c-.81 3.078-2.417 5.508-4.82 7.29-2.403 1.755-5.292 2.632-8.667 2.632-2.754 0-5.224-.607-7.411-1.822a13.244 13.244 0 0 1-5.063-5.144c-1.215-2.187-1.823-4.684-1.823-7.492z" fill="#4269E1"/>
        </g>
        <path d="M182.574 114.429c0 31.488-25.525 57.013-57.013 57.013-31.487 0-57.013-25.525-57.013-57.013 0-31.487 25.526-57.013 57.013-57.013 31.488 0 57.013 25.526 57.013 57.013zm-104.094 0c0 26.002 21.08 47.081 47.081 47.081 26.002 0 47.081-21.079 47.081-47.081 0-26.002-21.079-47.08-47.081-47.08-26.002 0-47.08 21.078-47.08 47.08z" fill="#fff"/>
        <path d="M199 114.5c0 40.593-32.907 73.5-73.5 73.5S52 155.093 52 114.5 84.907 41 125.5 41 199 73.907 199 114.5zm-141.259 0c0 37.422 30.337 67.759 67.759 67.759s67.759-30.337 67.759-67.759-30.337-67.759-67.759-67.759S57.741 77.078 57.741 114.5z" fill="#fff"/>
    </g>
    <defs>
        <clipPath id="lwy4idtnkb">
            <path fill="#fff" transform="translate(89.361 74.256)" d="M0 0h73.26v73.26H0z"/>
        </clipPath>
        <filter id="8s1vvnfb8a" x="0" y="0" width="277" height="277" filterUnits="userSpaceOnUse" color-interpolation-filters="sRGB">
            <feFlood flood-opacity="0" result="BackgroundImageFix"/>
            <feColorMatrix in="SourceAlpha" values="0 0 0 0 0 0 0 0 0 0 0 0 0 0 0 0 0 0 127 0" result="hardAlpha"/>
            <feOffset dx="12" dy="24"/>
            <feGaussianBlur stdDeviation="24"/>
            <feComposite in2="hardAlpha" operator="out"/>
            <feColorMatrix values="0 0 0 0 0.117647 0 0 0 0 0.12549 0 0 0 0 0.141176 0 0 0 0.1 0"/>
            <feBlend in2="BackgroundImageFix" result="effect1_dropShadow_2921_1778"/>
            <feBlend in="SourceGraphic" in2="effect1_dropShadow_2921_1778" result="shape"/>
        </filter>
    </defs>
</svg>
